<svg height="512" viewBox="0 0 128 128" width="512" xmlns="http://www.w3.org/2000/svg"><g id="number"><text fill="#24253a" font-family="MyriadPro-Regular, Myriad Pro" font-size="40" letter-spacing=".002em" transform="translate(60.261 -54.265)">9<tspan x="-10.3" y="228">19</tspan><tspan x="-10.3" y="456">29</tspan><tspan x="-10.3" y="684">39</tspan><tspan x="-10.3" y="912">49</tspan><tspan x="-10.3" y="1140">59</tspan><tspan x="-10.3" y="1368">69</tspan><tspan x="-10.3" y="1596">79</tspan><tspan x="-10.3" y="1824">89</tspan><tspan x="-10.3" y="2052">99</tspan><tspan x="-20.599" y="2280">109</tspan><tspan x="-20.599" y="2508">119</tspan><tspan x="-20.599" y="2736">129</tspan><tspan x="-20.599" y="2964">139</tspan><tspan x="-20.599" y="3192">149</tspan><tspan x="-20.599" y="3420">159</tspan><tspan x="-20.599" y="3648">169</tspan><tspan x="-20.599" y="3876">179</tspan><tspan x="-20.599" y="4104">189</tspan><tspan x="-20.599" y="4332">199</tspan><tspan x="-20.599" y="4560">209</tspan><tspan x="-20.599" y="4788">219</tspan><tspan x="-20.599" y="5016">229</tspan><tspan x="-20.599" y="5244">239</tspan><tspan x="-20.599" y="5472">249</tspan></text></g><g id="Circle_Grid" data-name="Circle Grid"><circle cx="64" cy="64" fill="#3b5059" r="64"/></g><g id="icon"><path d="m96.809 50.13h-38.477a4.64 4.64 0 0 1 -3.384-1.466l-4.959-5.287a4.64 4.64 0 0 0 -3.389-1.465h-16.153a4.64 4.64 0 0 0 -4.64 4.64v51.748a4.645 4.645 0 0 0 4.645 4.645h66.348a4.645 4.645 0 0 0 4.645-4.645v-43.53a4.64 4.64 0 0 0 -4.636-4.64z" fill="#eab54e"/><path d="m36.913 25.058h56.39v50.49h-56.39z" fill="#dbd8dd"/><path d="m33.953 29.746h54.673v48.774h-54.673z" fill="#eeefee"/><g fill="#dbd8dd"><path d="m40.135 35.948h42.311v2.22h-42.311z"/><path d="m40.135 43h42.311v2.22h-42.311z"/><path d="m40.135 50.052h42.311v2.22h-42.311z"/></g><path d="m100.359 57.574h-42.032a4.64 4.64 0 0 0 -3.378 1.459l-4.961 5.267a4.64 4.64 0 0 1 -3.378 1.459h-18.97a4.64 4.64 0 0 0 -4.621 5.062l2.4 27.9a4.645 4.645 0 0 0 4.626 4.223h67.16a4.645 4.645 0 0 0 4.626-4.224l3.146-36.083a4.64 4.64 0 0 0 -4.618-5.063z" fill="#f6c863"/></g></svg>